<svg width="22" height="23" viewBox="0 0 22 23" fill="none" xmlns="http://www.w3.org/2000/svg">
<path fill-rule="evenodd" clip-rule="evenodd" d="M0 11.5C0 5.14855 4.9247 0 11 0C17.0753 0 22 5.14855 22 11.5C22 17.8514 17.0753 23 11 23C4.9247 23 0 17.8514 0 11.5ZM11 2.3C8.6661 2.3 6.42778 3.26928 4.77746 4.99462C3.12714 6.71995 2.2 9.06001 2.2 11.5C2.2 13.94 3.12714 16.28 4.77746 18.0054C6.42778 19.7307 8.6661 20.7 11 20.7C13.3339 20.7 15.5722 19.7307 17.2225 18.0054C18.8729 16.28 19.8 13.94 19.8 11.5C19.8 9.06001 18.8729 6.71995 17.2225 4.99462C15.5722 3.26928 13.3339 2.3 11 2.3Z" fill="#002A29"/>
<path fill-rule="evenodd" clip-rule="evenodd" d="M12.1 5.75C12.1 5.445 11.9841 5.15249 11.7778 4.93683C11.5715 4.72116 11.2917 4.6 11 4.6C10.7083 4.6 10.4285 4.72116 10.2222 4.93683C10.0159 5.15249 9.9 5.445 9.9 5.75V10.35H5.5C5.20826 10.35 4.92847 10.4712 4.72218 10.6868C4.51589 10.9025 4.4 11.195 4.4 11.5C4.4 11.805 4.51589 12.0975 4.72218 12.3132C4.92847 12.5288 5.20826 12.65 5.5 12.65H9.9V17.25C9.9 17.555 10.0159 17.8475 10.2222 18.0632C10.4285 18.2788 10.7083 18.4 11 18.4C11.2917 18.4 11.5715 18.2788 11.7778 18.0632C11.9841 17.8475 12.1 17.555 12.1 17.25V12.65H16.5C16.7917 12.65 17.0715 12.5288 17.2778 12.3132C17.4841 12.0975 17.6 11.805 17.6 11.5C17.6 11.195 17.4841 10.9025 17.2778 10.6868C17.0715 10.4712 16.7917 10.35 16.5 10.35H12.1V5.75Z" fill="#002A29"/>
</svg>
