<svg width="30" height="30" viewBox="0 0 30 30" fill="none" xmlns="http://www.w3.org/2000/svg">
<g clip-path="url(#clip0_166_17)">
<path fill-rule="evenodd" clip-rule="evenodd" d="M6.0462 0.314772C5.94668 0.214994 5.82844 0.135831 5.69828 0.081817C5.56811 0.0278032 5.42856 0 5.28763 0C5.1467 0 5.00716 0.0278032 4.87699 0.081817C4.74682 0.135831 4.62859 0.214994 4.52906 0.314772L1.31477 3.52906C1.16455 3.67891 1.06219 3.86999 1.02069 4.07808C0.979193 4.28617 1.00041 4.50189 1.08167 4.69791C1.16292 4.89392 1.30054 5.0614 1.47709 5.1791C1.65364 5.29681 1.86116 5.35944 2.07335 5.35906H3.68049V9.64477H2.07335C1.86116 9.64439 1.65364 9.70702 1.47709 9.82473C1.30054 9.94243 1.16292 10.1099 1.08167 10.3059C1.00041 10.5019 0.979193 10.7177 1.02069 10.9258C1.06219 11.1338 1.16455 11.3249 1.31477 11.4748L4.52906 14.6891C4.62859 14.7888 4.74682 14.868 4.87699 14.922C5.00716 14.976 5.1467 15.0038 5.28763 15.0038C5.42856 15.0038 5.56811 14.976 5.69828 14.922C5.82844 14.868 5.94668 14.7888 6.0462 14.6891L9.26049 11.4748C9.41072 11.3249 9.51307 11.1338 9.55457 10.9258C9.59607 10.7177 9.57485 10.5019 9.4936 10.3059C9.41235 10.1099 9.27472 9.94243 9.09817 9.82473C8.92163 9.70702 8.7141 9.64439 8.50192 9.64477H6.89477V5.35906H8.50192C8.7141 5.35944 8.92163 5.29681 9.09817 5.1791C9.27472 5.0614 9.41235 4.89392 9.4936 4.69791C9.57485 4.50189 9.59607 4.28617 9.55457 4.07808C9.51307 3.86999 9.41072 3.67891 9.26049 3.52906L6.0462 0.314772ZM13.7391 20.7791V8.05906C13.7391 7.34297 14.0235 6.65622 14.5299 6.14987C15.0362 5.64352 15.723 5.35906 16.4391 5.35906C17.1551 5.35906 17.8419 5.64352 18.3482 6.14987C18.8546 6.65622 19.1391 7.34297 19.1391 8.05906V17.8669H24.4169C25.141 17.8669 25.8579 18.0095 26.5269 18.2866C27.1958 18.5637 27.8036 18.9698 28.3156 19.4818C28.8276 19.9938 29.2337 20.6016 29.5108 21.2705C29.7879 21.9395 29.9305 22.6564 29.9305 23.3805V27.8591C29.9305 28.4274 29.7047 28.9724 29.3029 29.3743C28.901 29.7761 28.356 30.0019 27.7876 30.0019H13.6298C13.2823 30.002 12.94 29.9176 12.6324 29.756C12.3248 29.5943 12.0611 29.3603 11.8641 29.0741L10.2269 26.6955C9.87893 26.1915 9.66242 25.6085 9.59708 24.9995C9.53174 24.3905 9.61964 23.7749 9.85278 23.2085C10.0859 22.6422 10.4569 22.143 10.9321 21.7565C11.4072 21.3701 11.9714 21.1084 12.5733 20.9955L13.7391 20.7791Z" fill="#FBD1DA"/>
</g>
<defs>
<clipPath id="clip0_166_17">
<rect width="30" height="30" fill="white"/>
</clipPath>
</defs>
</svg>
