<svg width="30" height="30" viewBox="0 0 30 30" fill="none" xmlns="http://www.w3.org/2000/svg">
<path d="M26.25 15.0004C25.9185 15.0004 25.6005 15.1321 25.3661 15.3665C25.1317 15.6009 25 15.9189 25 16.2504V23.7504C25 24.0819 24.8683 24.3999 24.6339 24.6343C24.3995 24.8687 24.0815 25.0004 23.75 25.0004H6.25C5.91848 25.0004 5.60054 24.8687 5.36612 24.6343C5.1317 24.3999 5 24.0819 5 23.7504V6.25041C5 5.91889 5.1317 5.60095 5.36612 5.36653C5.60054 5.13211 5.91848 5.00041 6.25 5.00041H13.75C14.0815 5.00041 14.3995 4.86872 14.6339 4.6343C14.8683 4.39988 15 4.08193 15 3.75041C15 3.41889 14.8683 3.10095 14.6339 2.86653C14.3995 2.63211 14.0815 2.50041 13.75 2.50041H6.25C5.25544 2.50041 4.30161 2.8955 3.59835 3.59876C2.89509 4.30202 2.5 5.25585 2.5 6.25041V23.7504C2.5 24.745 2.89509 25.6988 3.59835 26.4021C4.30161 27.1053 5.25544 27.5004 6.25 27.5004H23.75C24.7446 27.5004 25.6984 27.1053 26.4017 26.4021C27.1049 25.6988 27.5 24.745 27.5 23.7504V16.2504C27.5 15.9189 27.3683 15.6009 27.1339 15.3665C26.8995 15.1321 26.5815 15.0004 26.25 15.0004ZM7.5 15.9504V21.2504C7.5 21.5819 7.6317 21.8999 7.86612 22.1343C8.10054 22.3687 8.41848 22.5004 8.75 22.5004H14.05C14.2145 22.5014 14.3776 22.4698 14.5299 22.4076C14.6822 22.3454 14.8207 22.2538 14.9375 22.1379L23.5875 13.4754L27.1375 10.0004C27.2547 9.88421 27.3477 9.74596 27.4111 9.59363C27.4746 9.44131 27.5072 9.27793 27.5072 9.11291C27.5072 8.9479 27.4746 8.78452 27.4111 8.63219C27.3477 8.47987 27.2547 8.34162 27.1375 8.22541L21.8375 2.86291C21.7213 2.74575 21.583 2.65276 21.4307 2.5893C21.2784 2.52584 21.115 2.49316 20.95 2.49316C20.785 2.49316 20.6216 2.52584 20.4693 2.5893C20.317 2.65276 20.1787 2.74575 20.0625 2.86291L16.5375 6.40041L7.8625 15.0629C7.74665 15.1797 7.65499 15.3182 7.59279 15.4705C7.53058 15.6228 7.49905 15.7859 7.5 15.9504ZM20.95 5.51291L24.4875 9.05041L22.7125 10.8254L19.175 7.28791L20.95 5.51291ZM10 16.4629L17.4125 9.05041L20.95 12.5879L13.5375 20.0004H10V16.4629Z" fill="#BF0E1E"/>
</svg>
