<svg width="24" height="24" viewBox="0 0 24 24" fill="none" xmlns="http://www.w3.org/2000/svg">
<path d="M23.0004 6.99959C21.2378 6.90261 19.4891 7.36077 18.0004 8.30959C17.6404 7.89959 17.2704 7.48959 16.8804 7.09959L16.5904 6.82959L16.7304 6.70959C17.2195 6.2898 17.568 5.7301 17.7289 5.10603C17.8898 4.48195 17.8555 3.82352 17.6304 3.21959C17.3054 2.53777 16.7893 1.96502 16.1449 1.57093C15.5005 1.17683 14.7555 0.97835 14.0004 0.999589V2.99959C14.3562 2.99464 14.7069 3.0847 15.0163 3.26048C15.3257 3.43627 15.5826 3.69141 15.7604 3.99959C15.9304 4.39959 15.7604 4.83959 15.2904 5.30959L15.0604 5.51959C14.0174 4.65036 12.8723 3.91158 11.6504 3.31959C9.12045 2.17959 7.82044 2.70959 7.18044 3.31959C6.9858 3.51538 6.82975 3.74607 6.72044 3.99959L6.54044 4.52959L5.10044 8.86959C6.24044 11.7096 9.00045 16.7596 15.0004 18.9396L20.0004 17.2796C20.1691 17.2168 20.3176 17.1097 20.4304 16.9696L20.6404 16.7896C22.0704 15.3496 21.1504 12.5796 19.2304 9.88959C20.3705 9.22424 21.6832 8.91435 23.0004 8.99959V6.99959ZM19.2104 15.3696H19.1504C18.4604 15.7396 15.6004 14.7996 12.3604 11.5596C12.0204 11.2196 11.7004 10.8896 11.4104 10.5596C11.3104 10.4496 11.2204 10.3296 11.1204 10.2096L10.5904 9.56959L10.3104 9.17959C10.1704 8.98959 10.0304 8.79959 9.91044 8.61959C9.79044 8.43959 9.75044 8.35959 9.67044 8.22959C9.59044 8.09959 9.45044 7.88959 9.36044 7.71959C9.27044 7.54959 9.23044 7.47959 9.17044 7.34959C9.11044 7.21959 9.00044 7.06959 8.94044 6.92959C8.88044 6.78959 8.85045 6.69959 8.80045 6.58959C8.75045 6.47959 8.69044 6.31959 8.65044 6.18959C8.61044 6.05959 8.60044 5.99959 8.58044 5.89959C8.56044 5.79959 8.52044 5.65959 8.50044 5.55959C8.49564 5.47966 8.49564 5.39952 8.50044 5.31959C8.49103 5.23318 8.49103 5.146 8.50044 5.05959L8.61044 4.74959C8.78044 4.56959 9.52045 4.51959 10.8404 5.11959C11.722 5.54449 12.5565 6.06064 13.3304 6.65959C12.9088 6.8451 12.4594 6.95997 12.0004 6.99959V8.99959C13.063 8.94056 14.0942 8.61748 15.0004 8.05959L15.4904 8.51959C15.9304 8.94959 16.3204 9.37959 16.6804 9.78959C16.0768 10.8174 15.8372 12.0188 16.0004 13.1996L18.0004 12.8096C17.9322 12.4327 17.9322 12.0465 18.0004 11.6696C19.2904 13.6396 19.5304 15.0596 19.2104 15.3696ZM4.40044 10.9996L2.17044 17.6996C2.00949 18.1915 1.96723 18.7145 2.04712 19.2259C2.12701 19.7372 2.32677 20.2224 2.63009 20.6418C2.93341 21.0612 3.33166 21.4028 3.7923 21.6388C4.25293 21.8748 4.76288 21.9984 5.28045 21.9996C5.6207 21.9965 5.95827 21.9391 6.28045 21.8296L12.8004 19.6596C9.12058 17.7802 6.16678 14.735 4.40044 10.9996Z" fill="white"/>
</svg>
