<svg width="24" height="24" viewBox="0 0 24 24" fill="none" xmlns="http://www.w3.org/2000/svg">
<path d="M6.192 3.66998L19.76 11.303C19.8836 11.3726 19.9865 11.4739 20.058 11.5963C20.1296 11.7188 20.1673 11.8581 20.1673 12C20.1673 12.1418 20.1296 12.2812 20.058 12.4036C19.9865 12.5261 19.8836 12.6274 19.76 12.697L6.192 20.33C6.07022 20.3984 5.93264 20.4338 5.79294 20.4326C5.65324 20.4313 5.5163 20.3935 5.39575 20.323C5.2752 20.2524 5.17523 20.1514 5.1058 20.0302C5.03637 19.909 4.99989 19.7717 5 19.632V4.36798C5.00007 4.22836 5.03667 4.0912 5.10617 3.97011C5.17568 3.84902 5.27566 3.74823 5.39618 3.67776C5.51671 3.60728 5.65358 3.56958 5.79319 3.56839C5.9328 3.5672 6.07029 3.60157 6.192 3.66998Z" fill="white"/>
</svg>
