<svg width="30" height="30" viewBox="0 0 30 30" fill="none" xmlns="http://www.w3.org/2000/svg">
<path fill-rule="evenodd" clip-rule="evenodd" d="M24.368 3.91617C24.645 3.74956 24.9758 3.69671 25.2909 3.76873C25.606 3.84075 25.8809 4.03203 26.058 4.30242L27.2955 6.18992C27.4568 6.4365 27.5259 6.73213 27.4904 7.02465C27.455 7.31717 27.3173 7.58776 27.1018 7.78867L27.098 7.79367L27.0805 7.80992L27.0093 7.87617L26.728 8.14492C25.1718 9.6545 23.6628 11.2119 22.203 12.8149C19.4568 15.8349 16.1955 19.7874 14.0005 23.6224C13.388 24.6924 11.8918 24.9224 11.0043 23.9987L2.89803 15.5762C2.78186 15.4554 2.69116 15.3126 2.6313 15.1561C2.57145 14.9996 2.54367 14.8326 2.54962 14.6652C2.55556 14.4977 2.59511 14.3332 2.66592 14.1813C2.73673 14.0294 2.83734 13.8934 2.96178 13.7812L5.41178 11.5712C5.62708 11.3771 5.90316 11.2638 6.19275 11.2508C6.48235 11.2378 6.76746 11.3259 6.99928 11.4999L11.1355 14.6012C17.5968 8.22992 21.2605 5.78492 24.368 3.91617Z" fill="#BF0E1E"/>
</svg>
