<svg width="30" height="30" viewBox="0 0 30 30" fill="none" xmlns="http://www.w3.org/2000/svg">
<path d="M11.2502 4.65375C8.44816 5.29261 5.99668 6.9793 4.39852 9.36794C2.80036 11.7566 2.17663 14.6662 2.65522 17.5M11.2502 4.65375L7.50022 3.125M11.2502 4.65375L10.0002 8.125M23.8302 20.625C24.6022 19.0714 25.0027 17.3598 25.0002 15.625C25.0002 10.05 20.9465 5.42375 15.6252 4.53M23.8302 20.625L27.5002 18.125M23.8302 20.625L21.8752 16.875M4.39522 21.875C5.42234 23.4142 6.81367 24.676 8.44565 25.5482C10.0776 26.4205 11.8998 26.8762 13.7502 26.875C16.5182 26.8785 19.1896 25.858 21.2502 24.01M4.39522 21.875H8.75022M4.39522 21.875V26.25" stroke="white" stroke-width="2" stroke-linecap="round" stroke-linejoin="round"/>
</svg>
