<svg width="40" height="40" viewBox="0 0 40 40" fill="none" xmlns="http://www.w3.org/2000/svg">
<path d="M15.4167 36.6663L14.75 31.333C14.3889 31.1941 14.0489 31.0275 13.73 30.833C13.4111 30.6386 13.0983 30.4302 12.7917 30.208L7.83333 32.2913L3.25 24.3747L7.54167 21.1247C7.51389 20.9302 7.5 20.743 7.5 20.563V19.438C7.5 19.2569 7.51389 19.0691 7.54167 18.8747L3.25 15.6247L7.83333 7.70801L12.7917 9.79134C13.0972 9.56912 13.4167 9.36079 13.75 9.16634C14.0833 8.9719 14.4167 8.80523 14.75 8.66634L15.4167 3.33301H24.5833L25.25 8.66634C25.6111 8.80523 25.9517 8.9719 26.2717 9.16634C26.5917 9.36079 26.9039 9.56912 27.2083 9.79134L32.1667 7.70801L36.75 15.6247L32.4583 18.8747C32.4861 19.0691 32.5 19.2569 32.5 19.438V20.5613C32.5 20.7425 32.4722 20.9302 32.4167 21.1247L36.7083 24.3747L32.125 32.2913L27.2083 30.208C26.9028 30.4302 26.5833 30.6386 26.25 30.833C25.9167 31.0275 25.5833 31.1941 25.25 31.333L24.5833 36.6663H15.4167ZM20.0833 25.833C21.6944 25.833 23.0694 25.2636 24.2083 24.1247C25.3472 22.9858 25.9167 21.6108 25.9167 19.9997C25.9167 18.3886 25.3472 17.0136 24.2083 15.8747C23.0694 14.7358 21.6944 14.1663 20.0833 14.1663C18.4444 14.1663 17.0622 14.7358 15.9367 15.8747C14.8111 17.0136 14.2489 18.3886 14.25 19.9997C14.2511 21.6108 14.8139 22.9858 15.9383 24.1247C17.0628 25.2636 18.4444 25.833 20.0833 25.833Z" fill="#002A29"/>
</svg>
